<svg width="640" height="400" viewBox="0 0 640 400" fill="none" xmlns="http://www.w3.org/2000/svg">
  <defs>
    <linearGradient id="bg" x1="0" y1="0" x2="1" y2="1">
      <stop offset="0" stop-color="#5DD6C1" stop-opacity="0.3" />
      <stop offset="1" stop-color="#79A7FF" stop-opacity="0.3" />
    </linearGradient>
    <linearGradient id="icon" x1="0" y1="0" x2="1" y2="1">
      <stop offset="0" stop-color="#E8EEFC" />
      <stop offset="1" stop-color="#B7C3E6" />
    </linearGradient>
  </defs>
  <rect width="640" height="400" rx="28" fill="#050816" />
  <rect x="16" y="16" width="608" height="368" rx="24" fill="#0F1B33" />
  <rect x="16" y="16" width="608" height="368" rx="24" fill="url(#bg)" />
  <g transform="translate(120 120)">
    <rect x="0" y="70" width="360" height="90" rx="28" stroke="url(#icon)" stroke-width="4" fill="rgba(5, 8, 22, 0.8)" />
    <rect x="36" y="10" width="180" height="70" rx="18" stroke="url(#icon)" stroke-width="4" fill="rgba(5, 8, 22, 0.9)" />
    <rect x="52" y="26" width="70" height="38" rx="8" fill="#050816" stroke="url(#icon)" stroke-width="3" />
    <rect x="134" y="26" width="66" height="38" rx="8" fill="#050816" stroke="url(#icon)" stroke-width="3" />
    <circle cx="82" cy="154" r="22" fill="#050816" stroke="url(#icon)" stroke-width="5" />
    <circle cx="276" cy="154" r="22" fill="#050816" stroke="url(#icon)" stroke-width="5" />
    <circle cx="82" cy="154" r="9" fill="url(#icon)" />
    <circle cx="276" cy="154" r="9" fill="url(#icon)" />
    <rect x="210" y="36" width="110" height="46" rx="12" stroke="url(#icon)" stroke-width="3" fill="rgba(5, 8, 22, 0.9)" />
    <rect x="230" y="48" width="70" height="10" rx="4" fill="#B7C3E6" />
    <rect x="230" y="64" width="46" height="8" rx="4" fill="#5DD6C1" />
  </g>
  <rect x="220" y="296" width="200" height="12" rx="6" fill="rgba(11, 18, 32, 0.9)" />
  <rect x="230" y="298" width="120" height="8" rx="4" fill="#B7C3E6" />
</svg>

